<svg version="1.1" viewBox="0.0 0.0 612.0 442.0" fill="none" stroke="none" stroke-linecap="square" stroke-miterlimit="10" width="612" height="442" xmlns:xlink="http://www.w3.org/1999/xlink" xmlns="http://www.w3.org/2000/svg"><path fill="#ffffff" fill-opacity="0.0" d="M0 0L612.0 0L612.0 442.0L0 442.0L0 0Z" fill-rule="nonzero"/><path fill="#3e6679" d="M474.53333 203.27333L474.53333 177.99333Z" fill-rule="nonzero"/><path fill="#3e6679" d="M306.0 119.00667C352.53918 119.00667 390.26666 145.4159 390.26666 177.99333L390.26666 203.27333C390.26666 170.69589 352.53918 144.28667 306.0 144.28667Z" fill-rule="nonzero"/><path fill="#5891ad" d="M306.0 60.02C399.0784 60.02 474.53333 112.83846 474.53333 177.99333L390.26666 177.99333C390.26666 145.4159 352.53918 119.00667 306.0 119.00667Z" fill-rule="nonzero"/><path fill="#003044" d="M474.53333 203.27333C474.53333 268.4282 399.0784 321.24667 306.0 321.24667L306.0 295.96667C399.0784 295.96667 474.53333 243.14821 474.53333 177.99333Z" fill-rule="nonzero"/><path fill="#003044" d="M390.26666 177.99333L390.26666 203.27333Z" fill-rule="nonzero"/><path fill="#004561" d="M474.53333 177.99333C474.53333 243.14821 399.0784 295.96667 306.0 295.96667L306.0 236.98C352.53918 236.98 390.26666 210.57077 390.26666 177.99333Z" fill-rule="nonzero"/><path fill="#14535d" d="M137.46666 203.27333L137.46666 177.99333Z" fill-rule="nonzero"/><path fill="#14535d" d="M221.73334 177.99333C221.73334 145.4159 259.46082 119.00667 306.0 119.00667L306.0 144.28667C259.46082 144.28667 221.73334 170.69589 221.73334 203.27333Z" fill-rule="nonzero"/><path fill="#1c7685" d="M137.46666 177.99333C137.46666 112.83846 212.92162 60.02 306.0 60.02L306.0 119.00667C259.46082 119.00667 221.73334 145.4159 221.73334 177.99333Z" fill-rule="nonzero"/><path fill="#b34e22" d="M306.0 321.24667C212.92162 321.24667 137.46666 268.4282 137.46666 203.27333L137.46666 177.99333C137.46666 243.14821 212.92162 295.96667 306.0 295.96667Z" fill-rule="nonzero"/><path fill="#b34e22" d="M221.73334 177.99333L221.73334 203.27333Z" fill-rule="nonzero"/><path fill="#ff6f31" d="M306.0 295.96667C212.92162 295.96667 137.46666 243.14821 137.46666 177.99333L221.73334 177.99333C221.73334 210.57077 259.46082 236.98 306.0 236.98Z" fill-rule="nonzero"/><path fill="#ffffff" d="M382.45642 118.64728L382.45642 120.42853L375.72205 120.42853Q375.83142 119.4129 376.3783 118.50665Q376.92517 117.6004 378.55017 116.1004Q379.84705 114.89728 380.14392 114.45978Q380.53455 113.86603 380.53455 113.2879Q380.53455 112.64728 380.1908 112.30353Q379.84705 111.95978 379.23767 111.95978Q378.6283 111.95978 378.26892 112.31915Q377.92517 112.67853 377.86267 113.52228L375.95642 113.33478Q376.1283 111.74103 377.01892 111.05353Q377.92517 110.36603 379.28455 110.36603Q380.76892 110.36603 381.61267 111.1629Q382.45642 111.95978 382.45642 113.14728Q382.45642 113.83478 382.20642 114.44415Q381.97205 115.05353 381.45642 115.7254Q381.09705 116.1629 380.1908 117.00665Q379.28455 117.83478 379.03455 118.11603Q378.80017 118.38165 378.64392 118.64728L382.45642 118.64728ZM384.0033 117.8504L385.90955 117.64728Q386.0033 118.30353 386.39392 118.67853Q386.80017 119.05353 387.33142 119.05353Q387.92517 119.05353 388.34705 118.56915Q388.76892 118.08478 388.76892 117.1004Q388.76892 116.17853 388.34705 115.7254Q387.9408 115.25665 387.26892 115.25665Q386.4408 115.25665 385.78455 115.99103L384.23767 115.75665L385.22205 110.5379L390.30017 110.5379L390.30017 112.33478L386.67517 112.33478L386.3783 114.0379Q387.01892 113.7254 387.6908 113.7254Q388.95642 113.7254 389.84705 114.6629Q390.73767 115.58478 390.73767 117.06915Q390.73767 118.30353 390.01892 119.27228Q389.05017 120.6004 387.3158 120.6004Q385.92517 120.6004 385.05017 119.86603Q384.17517 119.11603 384.0033 117.8504ZM392.3783 120.42853L392.3783 118.50665L394.30017 118.50665L394.30017 120.42853L392.3783 120.42853ZM399.22205 110.36603Q400.67517 110.36603 401.5033 111.39728Q402.47205 112.63165 402.47205 115.49103Q402.47205 118.33478 401.48767 119.56915Q400.67517 120.6004 399.22205 120.6004Q397.7533 120.6004 396.86267 119.4754Q395.97205 118.3504 395.97205 115.45978Q395.97205 112.63165 396.95642 111.39728Q397.76892 110.36603 399.22205 110.36603ZM399.22205 111.95978Q398.8783 111.95978 398.59705 112.17853Q398.33142 112.39728 398.17517 112.9754Q397.97205 113.7254 397.97205 115.49103Q397.97205 117.25665 398.14392 117.9129Q398.33142 118.56915 398.59705 118.7879Q398.8783 119.00665 399.22205 119.00665Q399.5658 119.00665 399.83142 118.7879Q400.11267 118.56915 400.26892 117.99103Q400.47205 117.25665 400.47205 115.49103Q400.47205 113.7254 400.28455 113.06915Q400.11267 112.39728 399.83142 112.17853Q399.5658 111.95978 399.22205 111.95978ZM403.98767 112.88165Q403.98767 111.5379 404.58142 110.89728Q405.17517 110.24103 406.17517 110.24103Q407.22205 110.24103 407.8158 110.88165Q408.40955 111.52228 408.40955 112.88165Q408.40955 114.2254 407.8158 114.88165Q407.22205 115.52228 406.22205 115.52228Q405.17517 115.52228 404.58142 114.88165Q403.98767 114.24103 403.98767 112.88165ZM405.48767 112.86603Q405.48767 113.8504 405.70642 114.17853Q405.8783 114.42853 406.17517 114.42853Q406.48767 114.42853 406.65955 114.17853Q406.8783 113.8504 406.8783 112.86603Q406.8783 111.89728 406.65955 111.56915Q406.48767 111.30353 406.17517 111.30353Q405.8783 111.30353 405.70642 111.55353Q405.48767 111.89728 405.48767 112.86603ZM407.64392 120.81915L406.22205 120.81915L411.5658 110.24103L412.9408 110.24103L407.64392 120.81915ZM410.7533 118.17853Q410.7533 116.83478 411.33142 116.19415Q411.92517 115.5379 412.95642 115.5379Q413.98767 115.5379 414.58142 116.19415Q415.17517 116.83478 415.17517 118.17853Q415.17517 119.5379 414.58142 120.19415Q413.98767 120.83478 412.97205 120.83478Q411.92517 120.83478 411.33142 120.19415Q410.7533 119.5379 410.7533 118.17853ZM412.23767 118.17853Q412.23767 119.14728 412.47205 119.4754Q412.64392 119.7254 412.9408 119.7254Q413.2533 119.7254 413.40955 119.49103Q413.64392 119.14728 413.64392 118.17853Q413.64392 117.19415 413.42517 116.86603Q413.2533 116.61603 412.9408 116.61603Q412.6283 116.61603 412.47205 116.86603Q412.23767 117.19415 412.23767 118.17853Z" fill-rule="nonzero"/><path fill="#ffffff" d="M382.45642 243.77689L382.45642 245.55814L375.72205 245.55814Q375.83142 244.54251 376.3783 243.63626Q376.92517 242.73001 378.55017 241.23001Q379.84705 240.02689 380.14392 239.58939Q380.53455 238.99564 380.53455 238.41751Q380.53455 237.77689 380.1908 237.43314Q379.84705 237.08939 379.23767 237.08939Q378.6283 237.08939 378.26892 237.44876Q377.92517 237.80814 377.86267 238.65189L375.95642 238.46439Q376.1283 236.87064 377.01892 236.18314Q377.92517 235.49564 379.28455 235.49564Q380.76892 235.49564 381.61267 236.29251Q382.45642 237.08939 382.45642 238.27689Q382.45642 238.96439 382.20642 239.57376Q381.97205 240.18314 381.45642 240.85501Q381.09705 241.29251 380.1908 242.13626Q379.28455 242.96439 379.03455 243.24564Q378.80017 243.51126 378.64392 243.77689L382.45642 243.77689ZM384.0033 242.98001L385.90955 242.77689Q386.0033 243.43314 386.39392 243.80814Q386.80017 244.18314 387.33142 244.18314Q387.92517 244.18314 388.34705 243.69876Q388.76892 243.21439 388.76892 242.23001Q388.76892 241.30814 388.34705 240.85501Q387.9408 240.38626 387.26892 240.38626Q386.4408 240.38626 385.78455 241.12064L384.23767 240.88626L385.22205 235.66751L390.30017 235.66751L390.30017 237.46439L386.67517 237.46439L386.3783 239.16751Q387.01892 238.85501 387.6908 238.85501Q388.95642 238.85501 389.84705 239.79251Q390.73767 240.71439 390.73767 242.19876Q390.73767 243.43314 390.01892 244.40189Q389.05017 245.73001 387.3158 245.73001Q385.92517 245.73001 385.05017 244.99564Q384.17517 244.24564 384.0033 242.98001ZM392.3783 245.55814L392.3783 243.63626L394.30017 243.63626L394.30017 245.55814L392.3783 245.55814ZM399.22205 235.49564Q400.67517 235.49564 401.5033 236.52689Q402.47205 237.76126 402.47205 240.62064Q402.47205 243.46439 401.48767 244.69876Q400.67517 245.73001 399.22205 245.73001Q397.7533 245.73001 396.86267 244.60501Q395.97205 243.48001 395.97205 240.58939Q395.97205 237.76126 396.95642 236.52689Q397.76892 235.49564 399.22205 235.49564ZM399.22205 237.08939Q398.8783 237.08939 398.59705 237.30814Q398.33142 237.52689 398.17517 238.10501Q397.97205 238.85501 397.97205 240.62064Q397.97205 242.38626 398.14392 243.04251Q398.33142 243.69876 398.59705 243.91751Q398.8783 244.13626 399.22205 244.13626Q399.5658 244.13626 399.83142 243.91751Q400.11267 243.69876 400.26892 243.12064Q400.47205 242.38626 400.47205 240.62064Q400.47205 238.85501 400.28455 238.19876Q400.11267 237.52689 399.83142 237.30814Q399.5658 237.08939 399.22205 237.08939ZM403.98767 238.01126Q403.98767 236.66751 404.58142 236.02689Q405.17517 235.37064 406.17517 235.37064Q407.22205 235.37064 407.8158 236.01126Q408.40955 236.65189 408.40955 238.01126Q408.40955 239.35501 407.8158 240.01126Q407.22205 240.65189 406.22205 240.65189Q405.17517 240.65189 404.58142 240.01126Q403.98767 239.37064 403.98767 238.01126ZM405.48767 237.99564Q405.48767 238.98001 405.70642 239.30814Q405.8783 239.55814 406.17517 239.55814Q406.48767 239.55814 406.65955 239.30814Q406.8783 238.98001 406.8783 237.99564Q406.8783 237.02689 406.65955 236.69876Q406.48767 236.43314 406.17517 236.43314Q405.8783 236.43314 405.70642 236.68314Q405.48767 237.02689 405.48767 237.99564ZM407.64392 245.94876L406.22205 245.94876L411.5658 235.37064L412.9408 235.37064L407.64392 245.94876ZM410.7533 243.30814Q410.7533 241.96439 411.33142 241.32376Q411.92517 240.66751 412.95642 240.66751Q413.98767 240.66751 414.58142 241.32376Q415.17517 241.96439 415.17517 243.30814Q415.17517 244.66751 414.58142 245.32376Q413.98767 245.96439 412.97205 245.96439Q411.92517 245.96439 411.33142 245.32376Q410.7533 244.66751 410.7533 243.30814ZM412.23767 243.30814Q412.23767 244.27689 412.47205 244.60501Q412.64392 244.85501 412.9408 244.85501Q413.2533 244.85501 413.40955 244.62064Q413.64392 244.27689 413.64392 243.30814Q413.64392 242.32376 413.42517 241.99564Q413.2533 241.74564 412.9408 241.74564Q412.6283 241.74564 412.47205 241.99564Q412.23767 242.32376 412.23767 243.30814Z" fill-rule="nonzero"/><path fill="#ffffff" d="M203.69983 243.77689L203.69983 245.55814L196.96545 245.55814Q197.07483 244.54251 197.6217 243.63626Q198.16858 242.73001 199.79358 241.23001Q201.09045 240.02689 201.38733 239.58939Q201.77795 238.99564 201.77795 238.41751Q201.77795 237.77689 201.4342 237.43314Q201.09045 237.08939 200.48108 237.08939Q199.8717 237.08939 199.51233 237.44876Q199.16858 237.80814 199.10608 238.65189L197.19983 238.46439Q197.3717 236.87064 198.26233 236.18314Q199.16858 235.49564 200.52795 235.49564Q202.01233 235.49564 202.85608 236.29251Q203.69983 237.08939 203.69983 238.27689Q203.69983 238.96439 203.44983 239.57376Q203.21545 240.18314 202.69983 240.85501Q202.34045 241.29251 201.4342 242.13626Q200.52795 242.96439 200.27795 243.24564Q200.04358 243.51126 199.88733 243.77689L203.69983 243.77689ZM205.2467 242.98001L207.15295 242.77689Q207.2467 243.43314 207.63733 243.80814Q208.04358 244.18314 208.57483 244.18314Q209.16858 244.18314 209.59045 243.69876Q210.01233 243.21439 210.01233 242.23001Q210.01233 241.30814 209.59045 240.85501Q209.1842 240.38626 208.51233 240.38626Q207.6842 240.38626 207.02795 241.12064L205.48108 240.88626L206.46545 235.66751L211.54358 235.66751L211.54358 237.46439L207.91858 237.46439L207.6217 239.16751Q208.26233 238.85501 208.9342 238.85501Q210.19983 238.85501 211.09045 239.79251Q211.98108 240.71439 211.98108 242.19876Q211.98108 243.43314 211.26233 244.40189Q210.29358 245.73001 208.5592 245.73001Q207.16858 245.73001 206.29358 244.99564Q205.41858 244.24564 205.2467 242.98001ZM213.6217 245.55814L213.6217 243.63626L215.54358 243.63626L215.54358 245.55814L213.6217 245.55814ZM220.46545 235.49564Q221.91858 235.49564 222.7467 236.52689Q223.71545 237.76126 223.71545 240.62064Q223.71545 243.46439 222.73108 244.69876Q221.91858 245.73001 220.46545 245.73001Q218.9967 245.73001 218.10608 244.60501Q217.21545 243.48001 217.21545 240.58939Q217.21545 237.76126 218.19983 236.52689Q219.01233 235.49564 220.46545 235.49564ZM220.46545 237.08939Q220.1217 237.08939 219.84045 237.30814Q219.57483 237.52689 219.41858 238.10501Q219.21545 238.85501 219.21545 240.62064Q219.21545 242.38626 219.38733 243.04251Q219.57483 243.69876 219.84045 243.91751Q220.1217 244.13626 220.46545 244.13626Q220.8092 244.13626 221.07483 243.91751Q221.35608 243.69876 221.51233 243.12064Q221.71545 242.38626 221.71545 240.62064Q221.71545 238.85501 221.52795 238.19876Q221.35608 237.52689 221.07483 237.30814Q220.8092 237.08939 220.46545 237.08939ZM225.23108 238.01126Q225.23108 236.66751 225.82483 236.02689Q226.41858 235.37064 227.41858 235.37064Q228.46545 235.37064 229.0592 236.01126Q229.65295 236.65189 229.65295 238.01126Q229.65295 239.35501 229.0592 240.01126Q228.46545 240.65189 227.46545 240.65189Q226.41858 240.65189 225.82483 240.01126Q225.23108 239.37064 225.23108 238.01126ZM226.73108 237.99564Q226.73108 238.98001 226.94983 239.30814Q227.1217 239.55814 227.41858 239.55814Q227.73108 239.55814 227.90295 239.30814Q228.1217 238.98001 228.1217 237.99564Q228.1217 237.02689 227.90295 236.69876Q227.73108 236.43314 227.41858 236.43314Q227.1217 236.43314 226.94983 236.68314Q226.73108 237.02689 226.73108 237.99564ZM228.88733 245.94876L227.46545 245.94876L232.8092 235.37064L234.1842 235.37064L228.88733 245.94876ZM231.9967 243.30814Q231.9967 241.96439 232.57483 241.32376Q233.16858 240.66751 234.19983 240.66751Q235.23108 240.66751 235.82483 241.32376Q236.41858 241.96439 236.41858 243.30814Q236.41858 244.66751 235.82483 245.32376Q235.23108 245.96439 234.21545 245.96439Q233.16858 245.96439 232.57483 245.32376Q231.9967 244.66751 231.9967 243.30814ZM233.48108 243.30814Q233.48108 244.27689 233.71545 244.60501Q233.88733 244.85501 234.1842 244.85501Q234.4967 244.85501 234.65295 244.62064Q234.88733 244.27689 234.88733 243.30814Q234.88733 242.32376 234.66858 241.99564Q234.4967 241.74564 234.1842 241.74564Q233.8717 241.74564 233.71545 241.99564Q233.48108 242.32376 233.48108 243.30814Z" fill-rule="nonzero"/><path fill="#ffffff" d="M203.69983 118.64728L203.69983 120.42853L196.96545 120.42853Q197.07483 119.4129 197.6217 118.50665Q198.16858 117.6004 199.79358 116.1004Q201.09045 114.89728 201.38733 114.45978Q201.77795 113.86603 201.77795 113.2879Q201.77795 112.64728 201.4342 112.30353Q201.09045 111.95978 200.48108 111.95978Q199.8717 111.95978 199.51233 112.31915Q199.16858 112.67853 199.10608 113.52228L197.19983 113.33478Q197.3717 111.74103 198.26233 111.05353Q199.16858 110.36603 200.52795 110.36603Q202.01233 110.36603 202.85608 111.1629Q203.69983 111.95978 203.69983 113.14728Q203.69983 113.83478 203.44983 114.44415Q203.21545 115.05353 202.69983 115.7254Q202.34045 116.1629 201.4342 117.00665Q200.52795 117.83478 200.27795 118.11603Q200.04358 118.38165 199.88733 118.64728L203.69983 118.64728ZM205.2467 117.8504L207.15295 117.64728Q207.2467 118.30353 207.63733 118.67853Q208.04358 119.05353 208.57483 119.05353Q209.16858 119.05353 209.59045 118.56915Q210.01233 118.08478 210.01233 117.1004Q210.01233 116.17853 209.59045 115.7254Q209.1842 115.25665 208.51233 115.25665Q207.6842 115.25665 207.02795 115.99103L205.48108 115.75665L206.46545 110.5379L211.54358 110.5379L211.54358 112.33478L207.91858 112.33478L207.6217 114.0379Q208.26233 113.7254 208.9342 113.7254Q210.19983 113.7254 211.09045 114.6629Q211.98108 115.58478 211.98108 117.06915Q211.98108 118.30353 211.26233 119.27228Q210.29358 120.6004 208.5592 120.6004Q207.16858 120.6004 206.29358 119.86603Q205.41858 119.11603 205.2467 117.8504ZM213.6217 120.42853L213.6217 118.50665L215.54358 118.50665L215.54358 120.42853L213.6217 120.42853ZM220.46545 110.36603Q221.91858 110.36603 222.7467 111.39728Q223.71545 112.63165 223.71545 115.49103Q223.71545 118.33478 222.73108 119.56915Q221.91858 120.6004 220.46545 120.6004Q218.9967 120.6004 218.10608 119.4754Q217.21545 118.3504 217.21545 115.45978Q217.21545 112.63165 218.19983 111.39728Q219.01233 110.36603 220.46545 110.36603ZM220.46545 111.95978Q220.1217 111.95978 219.84045 112.17853Q219.57483 112.39728 219.41858 112.9754Q219.21545 113.7254 219.21545 115.49103Q219.21545 117.25665 219.38733 117.9129Q219.57483 118.56915 219.84045 118.7879Q220.1217 119.00665 220.46545 119.00665Q220.8092 119.00665 221.07483 118.7879Q221.35608 118.56915 221.51233 117.99103Q221.71545 117.25665 221.71545 115.49103Q221.71545 113.7254 221.52795 113.06915Q221.35608 112.39728 221.07483 112.17853Q220.8092 111.95978 220.46545 111.95978ZM225.23108 112.88165Q225.23108 111.5379 225.82483 110.89728Q226.41858 110.24103 227.41858 110.24103Q228.46545 110.24103 229.0592 110.88165Q229.65295 111.52228 229.65295 112.88165Q229.65295 114.2254 229.0592 114.88165Q228.46545 115.52228 227.46545 115.52228Q226.41858 115.52228 225.82483 114.88165Q225.23108 114.24103 225.23108 112.88165ZM226.73108 112.86603Q226.73108 113.8504 226.94983 114.17853Q227.1217 114.42853 227.41858 114.42853Q227.73108 114.42853 227.90295 114.17853Q228.1217 113.8504 228.1217 112.86603Q228.1217 111.89728 227.90295 111.56915Q227.73108 111.30353 227.41858 111.30353Q227.1217 111.30353 226.94983 111.55353Q226.73108 111.89728 226.73108 112.86603ZM228.88733 120.81915L227.46545 120.81915L232.8092 110.24103L234.1842 110.24103L228.88733 120.81915ZM231.9967 118.17853Q231.9967 116.83478 232.57483 116.19415Q233.16858 115.5379 234.19983 115.5379Q235.23108 115.5379 235.82483 116.19415Q236.41858 116.83478 236.41858 118.17853Q236.41858 119.5379 235.82483 120.19415Q235.23108 120.83478 234.21545 120.83478Q233.16858 120.83478 232.57483 120.19415Q231.9967 119.5379 231.9967 118.17853ZM233.48108 118.17853Q233.48108 119.14728 233.71545 119.4754Q233.88733 119.7254 234.1842 119.7254Q234.4967 119.7254 234.65295 119.49103Q234.88733 119.14728 234.88733 118.17853Q234.88733 117.19415 234.66858 116.86603Q234.4967 116.61603 234.1842 116.61603Q233.8717 116.61603 233.71545 116.86603Q233.48108 117.19415 233.48108 118.17853Z" fill-rule="nonzero"/><path fill="#5891ad" d="M151.0 384.4C151.0 387.7137 148.3137 390.4 145.0 390.4C141.6863 390.4 139.0 387.7137 139.0 384.4C139.0 381.0863 141.6863 378.4 145.0 378.4C148.3137 378.4 151.0 381.0863 151.0 384.4Z" fill-rule="nonzero"/><path fill="#ffffff" d="M168.54688 386.16562L171.07812 386.9625Q170.5 389.07187 169.14062 390.10312Q167.79688 391.11874 165.71875 391.11874Q163.15625 391.11874 161.5 389.36874Q159.85938 387.61874 159.85938 384.57187Q159.85938 381.35312 161.51562 379.57187Q163.17188 377.79062 165.875 377.79062Q168.25 377.79062 169.71875 379.19687Q170.60938 380.025 171.04688 381.57187L168.46875 382.18124Q168.23438 381.18124 167.5 380.60312Q166.78125 380.025 165.75 380.025Q164.3125 380.025 163.42188 381.05624Q162.53125 382.07187 162.53125 384.38437Q162.53125 386.82187 163.40625 387.86874Q164.29688 388.9 165.70312 388.9Q166.73438 388.9 167.48438 388.24374Q168.23438 387.57187 168.54688 386.16562ZM175.14062 384.41562L172.89062 384.00937Q173.28125 382.65 174.20312 382.00937Q175.125 381.35312 176.9375 381.35312Q178.59375 381.35312 179.39062 381.74374Q180.20312 382.13437 180.53125 382.74374Q180.875 383.3375 180.875 384.94687L180.84375 387.8375Q180.84375 389.05624 180.95312 389.65Q181.07812 390.22812 181.40625 390.9L178.96875 390.9Q178.85938 390.65 178.71875 390.16562Q178.65625 389.94687 178.64062 389.88437Q178.0 390.49374 177.28125 390.80624Q176.5625 391.11874 175.75 391.11874Q174.29688 391.11874 173.46875 390.3375Q172.64062 389.54062 172.64062 388.35312Q172.64062 387.55624 173.01562 386.94687Q173.39062 386.32187 174.07812 385.99374Q174.76562 385.66562 176.04688 385.41562Q177.78125 385.0875 178.4375 384.80624L178.4375 384.55624Q178.4375 383.85312 178.07812 383.55624Q177.73438 383.24374 176.76562 383.24374Q176.10938 383.24374 175.73438 383.50937Q175.35938 383.75937 175.14062 384.41562ZM178.4375 386.41562Q177.96875 386.57187 176.9375 386.79062Q175.90625 387.00937 175.59375 387.22812Q175.10938 387.57187 175.10938 388.10312Q175.10938 388.61874 175.5 388.99374Q175.89062 389.36874 176.48438 389.36874Q177.15625 389.36874 177.75 388.93124Q178.20312 388.60312 178.34375 388.11874Q178.4375 387.79062 178.4375 386.91562L178.4375 386.41562ZM191.78125 390.9L189.3125 390.9L189.3125 386.13437Q189.3125 384.61874 189.15625 384.18124Q189.0 383.74374 188.64062 383.49374Q188.28125 383.24374 187.78125 383.24374Q187.14062 383.24374 186.625 383.60312Q186.125 383.94687 185.9375 384.525Q185.75 385.10312 185.75 386.66562L185.75 390.9L183.28125 390.9L183.28125 381.57187L185.5625 381.57187L185.5625 382.93124Q186.79688 381.35312 188.64062 381.35312Q189.46875 381.35312 190.14062 381.65Q190.8125 381.94687 191.15625 382.4Q191.51562 382.85312 191.64062 383.44687Q191.78125 384.025 191.78125 385.10312L191.78125 390.9ZM202.4375 384.32187L200.0 384.75937Q199.875 384.04062 199.4375 383.66562Q199.0 383.29062 198.3125 383.29062Q197.39062 383.29062 196.82812 383.93124Q196.28125 384.57187 196.28125 386.07187Q196.28125 387.72812 196.84375 388.41562Q197.40625 389.10312 198.34375 389.10312Q199.04688 389.10312 199.48438 388.69687Q199.9375 388.29062 200.125 387.32187L202.54688 387.72812Q202.17188 389.4 201.09375 390.25937Q200.03125 391.11874 198.23438 391.11874Q196.1875 391.11874 194.96875 389.82187Q193.75 388.525 193.75 386.24374Q193.75 383.93124 194.96875 382.65Q196.1875 381.35312 198.28125 381.35312Q199.98438 381.35312 200.98438 382.0875Q201.98438 382.82187 202.4375 384.32187ZM209.70312 387.93124L212.15625 388.3375Q211.6875 389.69687 210.65625 390.41562Q209.64062 391.11874 208.09375 391.11874Q205.65625 391.11874 204.5 389.525Q203.57812 388.24374 203.57812 386.30624Q203.57812 383.97812 204.78125 382.66562Q206.0 381.35312 207.85938 381.35312Q209.9375 381.35312 211.14062 382.72812Q212.34375 384.10312 212.29688 386.94687L206.10938 386.94687Q206.125 388.04062 206.6875 388.65Q207.26562 389.25937 208.125 389.25937Q208.70312 389.25937 209.09375 388.94687Q209.5 388.63437 209.70312 387.93124ZM209.84375 385.43124Q209.8125 384.35312 209.28125 383.80624Q208.75 383.24374 208.0 383.24374Q207.1875 383.24374 206.67188 383.8375Q206.14062 384.41562 206.14062 385.43124L209.84375 385.43124ZM216.65625 390.9L214.1875 390.9L214.1875 381.57187L216.48438 381.57187L216.48438 382.9Q217.0625 381.94687 217.53125 381.65Q218.01562 381.35312 218.60938 381.35312Q219.45312 381.35312 220.23438 381.82187L219.46875 383.97812Q218.84375 383.57187 218.3125 383.57187Q217.79688 383.57187 217.42188 383.85312Q217.0625 384.13437 216.85938 384.88437Q216.65625 385.63437 216.65625 388.00937L216.65625 390.9ZM226.3125 390.9L226.3125 378.00937L231.79688 378.00937Q233.85938 378.00937 234.79688 378.36874Q235.73438 378.7125 236.29688 379.60312Q236.85938 380.47812 236.85938 381.63437Q236.85938 383.07187 236.0 384.025Q235.15625 384.9625 233.45312 385.2125Q234.29688 385.7125 234.84375 386.30624Q235.39062 386.88437 236.32812 388.38437L237.90625 390.9L234.79688 390.9L232.90625 388.10312Q231.90625 386.5875 231.53125 386.19687Q231.17188 385.80624 230.75 385.66562Q230.34375 385.525 229.45312 385.525L228.92188 385.525L228.92188 390.9L226.3125 390.9ZM228.92188 383.4625L230.84375 383.4625Q232.71875 383.4625 233.1875 383.30624Q233.65625 383.15 233.90625 382.75937Q234.17188 382.36874 234.17188 381.79062Q234.17188 381.15 233.82812 380.74374Q233.48438 380.3375 232.84375 380.24374Q232.53125 380.19687 230.95312 380.19687L228.92188 380.19687L228.92188 383.4625ZM244.70312 387.93124L247.15625 388.3375Q246.6875 389.69687 245.65625 390.41562Q244.64062 391.11874 243.09375 391.11874Q240.65625 391.11874 239.5 389.525Q238.57812 388.24374 238.57812 386.30624Q238.57812 383.97812 239.78125 382.66562Q241.0 381.35312 242.85938 381.35312Q244.9375 381.35312 246.14062 382.72812Q247.34375 384.10312 247.29688 386.94687L241.10938 386.94687Q241.125 388.04062 241.6875 388.65Q242.26562 389.25937 243.125 389.25937Q243.70312 389.25937 244.09375 388.94687Q244.5 388.63437 244.70312 387.93124ZM244.84375 385.43124Q244.8125 384.35312 244.28125 383.80624Q243.75 383.24374 243.0 383.24374Q242.1875 383.24374 241.67188 383.8375Q241.14062 384.41562 241.14062 385.43124L244.84375 385.43124ZM248.42188 388.24374L250.90625 387.85312Q251.0625 388.57187 251.54688 388.94687Q252.03125 389.32187 252.89062 389.32187Q253.85938 389.32187 254.34375 388.97812Q254.65625 388.72812 254.65625 388.32187Q254.65625 388.04062 254.48438 387.85312Q254.29688 387.68124 253.65625 387.525Q250.67188 386.86874 249.875 386.32187Q248.76562 385.57187 248.76562 384.2125Q248.76562 383.00937 249.71875 382.18124Q250.6875 381.35312 252.6875 381.35312Q254.60938 381.35312 255.53125 381.97812Q256.46875 382.60312 256.82812 383.82187L254.5 384.25937Q254.34375 383.7125 253.92188 383.43124Q253.51562 383.13437 252.73438 383.13437Q251.76562 383.13437 251.34375 383.4Q251.0625 383.60312 251.0625 383.9Q251.0625 384.16562 251.3125 384.35312Q251.64062 384.60312 253.60938 385.05624Q255.57812 385.49374 256.375 386.15Q257.14062 386.80624 257.14062 387.97812Q257.14062 389.25937 256.0625 390.19687Q255.0 391.11874 252.89062 391.11874Q250.98438 391.11874 249.875 390.3375Q248.76562 389.55624 248.42188 388.24374ZM264.70312 387.93124L267.15625 388.3375Q266.6875 389.69687 265.65625 390.41562Q264.64062 391.11874 263.09375 391.11874Q260.65625 391.11874 259.5 389.525Q258.57812 388.24374 258.57812 386.30624Q258.57812 383.97812 259.78125 382.66562Q261.0 381.35312 262.85938 381.35312Q264.9375 381.35312 266.14062 382.72812Q267.34375 384.10312 267.29688 386.94687L261.10938 386.94687Q261.125 388.04062 261.6875 388.65Q262.26562 389.25937 263.125 389.25937Q263.70312 389.25937 264.09375 388.94687Q264.5 388.63437 264.70312 387.93124ZM264.84375 385.43124Q264.8125 384.35312 264.28125 383.80624Q263.75 383.24374 263.0 383.24374Q262.1875 383.24374 261.67188 383.8375Q261.14062 384.41562 261.14062 385.43124L264.84375 385.43124ZM271.14062 384.41562L268.89062 384.00937Q269.28125 382.65 270.20312 382.00937Q271.125 381.35312 272.9375 381.35312Q274.59375 381.35312 275.39062 381.74374Q276.20312 382.13437 276.53125 382.74374Q276.875 383.3375 276.875 384.94687L276.84375 387.8375Q276.84375 389.05624 276.95312 389.65Q277.07812 390.22812 277.40625 390.9L274.96875 390.9Q274.85938 390.65 274.71875 390.16562Q274.65625 389.94687 274.64062 389.88437Q274.0 390.49374 273.28125 390.80624Q272.5625 391.11874 271.75 391.11874Q270.29688 391.11874 269.46875 390.3375Q268.64062 389.54062 268.64062 388.35312Q268.64062 387.55624 269.01562 386.94687Q269.39062 386.32187 270.07812 385.99374Q270.76562 385.66562 272.04688 385.41562Q273.78125 385.0875 274.4375 384.80624L274.4375 384.55624Q274.4375 383.85312 274.07812 383.55624Q273.73438 383.24374 272.76562 383.24374Q272.10938 383.24374 271.73438 383.50937Q271.35938 383.75937 271.14062 384.41562ZM274.4375 386.41562Q273.96875 386.57187 272.9375 386.79062Q271.90625 387.00937 271.59375 387.22812Q271.10938 387.57187 271.10938 388.10312Q271.10938 388.61874 271.5 388.99374Q271.89062 389.36874 272.48438 389.36874Q273.15625 389.36874 273.75 388.93124Q274.20312 388.60312 274.34375 388.11874Q274.4375 387.79062 274.4375 386.91562L274.4375 386.41562ZM281.65625 390.9L279.1875 390.9L279.1875 381.57187L281.48438 381.57187L281.48438 382.9Q282.0625 381.94687 282.53125 381.65Q283.01562 381.35312 283.60938 381.35312Q284.45312 381.35312 285.23438 381.82187L284.46875 383.97812Q283.84375 383.57187 283.3125 383.57187Q282.79688 383.57187 282.42188 383.85312Q282.0625 384.13437 281.85938 384.88437Q281.65625 385.63437 281.65625 388.00937L281.65625 390.9ZM294.4375 384.32187L292.0 384.75937Q291.875 384.04062 291.4375 383.66562Q291.0 383.29062 290.3125 383.29062Q289.39062 383.29062 288.82812 383.93124Q288.28125 384.57187 288.28125 386.07187Q288.28125 387.72812 288.84375 388.41562Q289.40625 389.10312 290.34375 389.10312Q291.04688 389.10312 291.48438 388.69687Q291.9375 388.29062 292.125 387.32187L294.54688 387.72812Q294.17188 389.4 293.09375 390.25937Q292.03125 391.11874 290.23438 391.11874Q288.1875 391.11874 286.96875 389.82187Q285.75 388.525 285.75 386.24374Q285.75 383.93124 286.96875 382.65Q288.1875 381.35312 290.28125 381.35312Q291.98438 381.35312 292.98438 382.0875Q293.98438 382.82187 294.4375 384.32187ZM298.75 378.00937L298.75 382.75937Q299.95312 381.35312 301.60938 381.35312Q302.46875 381.35312 303.14062 381.68124Q303.82812 381.99374 304.17188 382.49374Q304.53125 382.97812 304.65625 383.57187Q304.78125 384.16562 304.78125 385.43124L304.78125 390.9L302.3125 390.9L302.3125 385.9625Q302.3125 384.49374 302.17188 384.10312Q302.03125 383.7125 301.67188 383.47812Q301.3125 383.24374 300.78125 383.24374Q300.17188 383.24374 299.6875 383.54062Q299.20312 383.8375 298.96875 384.44687Q298.75 385.04062 298.75 386.22812L298.75 390.9L296.28125 390.9L296.28125 378.00937L298.75 378.00937Z" fill-rule="nonzero"/><path fill="#004561" d="M334.0 384.4C334.0 387.7137 331.31372 390.4 328.0 390.4C324.68628 390.4 322.0 387.7137 322.0 384.4C322.0 381.0863 324.68628 378.4 328.0 378.4C331.31372 378.4 334.0 381.0863 334.0 384.4Z" fill-rule="nonzero"/><path fill="#ffffff" d="M343.28125 390.9L343.28125 378.00937L347.17188 378.00937L349.5 386.80624L351.8125 378.00937L355.71875 378.00937L355.71875 390.9L353.29688 390.9L353.29688 380.75937L350.75 390.9L348.23438 390.9L345.6875 380.75937L345.6875 390.9L343.28125 390.9ZM358.29688 380.30624L358.29688 378.00937L360.76562 378.00937L360.76562 380.30624L358.29688 380.30624ZM358.29688 390.9L358.29688 381.57187L360.76562 381.57187L360.76562 390.9L358.29688 390.9ZM371.78125 390.9L369.3125 390.9L369.3125 386.13437Q369.3125 384.61874 369.15625 384.18124Q369.0 383.74374 368.64062 383.49374Q368.28125 383.24374 367.78125 383.24374Q367.14062 383.24374 366.625 383.60312Q366.125 383.94687 365.9375 384.525Q365.75 385.10312 365.75 386.66562L365.75 390.9L363.28125 390.9L363.28125 381.57187L365.5625 381.57187L365.5625 382.93124Q366.79688 381.35312 368.64062 381.35312Q369.46875 381.35312 370.14062 381.65Q370.8125 381.94687 371.15625 382.4Q371.51562 382.85312 371.64062 383.44687Q371.78125 384.025 371.78125 385.10312L371.78125 390.9ZM373.71875 386.10312Q373.71875 384.86874 374.32812 383.72812Q374.9375 382.57187 376.04688 381.9625Q377.15625 381.35312 378.53125 381.35312Q380.64062 381.35312 382.0 382.72812Q383.35938 384.10312 383.35938 386.2125Q383.35938 388.32187 381.98438 389.72812Q380.625 391.11874 378.54688 391.11874Q377.26562 391.11874 376.09375 390.54062Q374.9375 389.94687 374.32812 388.8375Q373.71875 387.7125 373.71875 386.10312ZM376.25 386.22812Q376.25 387.61874 376.90625 388.36874Q377.57812 389.10312 378.53125 389.10312Q379.5 389.10312 380.15625 388.36874Q380.8125 387.61874 380.8125 386.2125Q380.8125 384.8375 380.15625 384.10312Q379.5 383.36874 378.53125 383.36874Q377.57812 383.36874 376.90625 384.10312Q376.25 384.8375 376.25 386.22812ZM387.65625 390.9L385.1875 390.9L385.1875 381.57187L387.48438 381.57187L387.48438 382.9Q388.0625 381.94687 388.53125 381.65Q389.01562 381.35312 389.60938 381.35312Q390.45312 381.35312 391.23438 381.82187L390.46875 383.97812Q389.84375 383.57187 389.3125 383.57187Q388.79688 383.57187 388.42188 383.85312Q388.0625 384.13437 387.85938 384.88437Q387.65625 385.63437 387.65625 388.00937L387.65625 390.9ZM392.29688 380.30624L392.29688 378.00937L394.76562 378.00937L394.76562 380.30624L392.29688 380.30624ZM392.29688 390.9L392.29688 381.57187L394.76562 381.57187L394.76562 390.9L392.29688 390.9ZM401.57812 381.57187L401.57812 383.54062L399.89062 383.54062L399.89062 387.29062Q399.89062 388.43124 399.9375 388.63437Q399.98438 388.82187 400.15625 388.94687Q400.32812 389.05624 400.57812 389.05624Q400.90625 389.05624 401.5625 388.82187L401.78125 390.74374Q400.90625 391.11874 399.82812 391.11874Q399.15625 391.11874 398.60938 390.9Q398.07812 390.66562 397.82812 390.30624Q397.57812 389.94687 397.48438 389.3375Q397.40625 388.91562 397.40625 387.60312L397.40625 383.54062L396.26562 383.54062L396.26562 381.57187L397.40625 381.57187L397.40625 379.7125L399.89062 378.275L399.89062 381.57187L401.57812 381.57187ZM402.125 381.57187L404.75 381.57187L406.98438 388.19687L409.15625 381.57187L411.71875 381.57187L408.42188 390.54062L407.84375 392.18124Q407.51562 392.99374 407.21875 393.41562Q406.92188 393.85312 406.53125 394.11874Q406.15625 394.38437 405.59375 394.525Q405.04688 394.68124 404.34375 394.68124Q403.625 394.68124 402.9375 394.54062L402.71875 392.60312Q403.29688 392.7125 403.76562 392.7125Q404.625 392.7125 405.03125 392.2125Q405.45312 391.7125 405.67188 390.93124L402.125 381.57187ZM418.3125 390.9L418.3125 378.00937L423.79688 378.00937Q425.85938 378.00937 426.79688 378.36874Q427.73438 378.7125 428.29688 379.60312Q428.85938 380.47812 428.85938 381.63437Q428.85938 383.07187 428.0 384.025Q427.15625 384.9625 425.45312 385.2125Q426.29688 385.7125 426.84375 386.30624Q427.39062 386.88437 428.32812 388.38437L429.90625 390.9L426.79688 390.9L424.90625 388.10312Q423.90625 386.5875 423.53125 386.19687Q423.17188 385.80624 422.75 385.66562Q422.34375 385.525 421.45312 385.525L420.92188 385.525L420.92188 390.9L418.3125 390.9ZM420.92188 383.4625L422.84375 383.4625Q424.71875 383.4625 425.1875 383.30624Q425.65625 383.15 425.90625 382.75937Q426.17188 382.36874 426.17188 381.79062Q426.17188 381.15 425.82812 380.74374Q425.48438 380.3375 424.84375 380.24374Q424.53125 380.19687 422.95312 380.19687L420.92188 380.19687L420.92188 383.4625ZM431.29688 380.30624L431.29688 378.00937L433.76562 378.00937L433.76562 380.30624L431.29688 380.30624ZM431.29688 390.9L431.29688 381.57187L433.76562 381.57187L433.76562 390.9L431.29688 390.9ZM436.0625 391.50937L438.89062 391.85312Q438.95312 392.35312 439.20312 392.54062Q439.5625 392.80624 440.3125 392.80624Q441.28125 392.80624 441.76562 392.50937Q442.09375 392.32187 442.26562 391.88437Q442.375 391.57187 442.375 390.74374L442.375 389.38437Q441.26562 390.9 439.57812 390.9Q437.70312 390.9 436.59375 389.30624Q435.73438 388.05624 435.73438 386.18124Q435.73438 383.8375 436.85938 382.60312Q438.0 381.35312 439.67188 381.35312Q441.40625 381.35312 442.53125 382.86874L442.53125 381.57187L444.84375 381.57187L444.84375 389.94687Q444.84375 391.5875 444.5625 392.4Q444.29688 393.22812 443.79688 393.69687Q443.3125 394.16562 442.48438 394.41562Q441.67188 394.68124 440.42188 394.68124Q438.04688 394.68124 437.04688 393.86874Q436.0625 393.05624 436.0625 391.82187Q436.0625 391.69687 436.0625 391.50937ZM438.26562 386.04062Q438.26562 387.525 438.84375 388.2125Q439.42188 388.9 440.26562 388.9Q441.17188 388.9 441.79688 388.19687Q442.42188 387.49374 442.42188 386.10312Q442.42188 384.65 441.8125 383.94687Q441.21875 383.24374 440.3125 383.24374Q439.42188 383.24374 438.84375 383.93124Q438.26562 384.61874 438.26562 386.04062ZM449.75 378.00937L449.75 382.75937Q450.95312 381.35312 452.60938 381.35312Q453.46875 381.35312 454.14062 381.68124Q454.82812 381.99374 455.17188 382.49374Q455.53125 382.97812 455.65625 383.57187Q455.78125 384.16562 455.78125 385.43124L455.78125 390.9L453.3125 390.9L453.3125 385.9625Q453.3125 384.49374 453.17188 384.10312Q453.03125 383.7125 452.67188 383.47812Q452.3125 383.24374 451.78125 383.24374Q451.17188 383.24374 450.6875 383.54062Q450.20312 383.8375 449.96875 384.44687Q449.75 385.04062 449.75 386.22812L449.75 390.9L447.28125 390.9L447.28125 378.00937L449.75 378.00937ZM462.57812 381.57187L462.57812 383.54062L460.89062 383.54062L460.89062 387.29062Q460.89062 388.43124 460.9375 388.63437Q460.98438 388.82187 461.15625 388.94687Q461.32812 389.05624 461.57812 389.05624Q461.90625 389.05624 462.5625 388.82187L462.78125 390.74374Q461.90625 391.11874 460.82812 391.11874Q460.15625 391.11874 459.60938 390.9Q459.07812 390.66562 458.82812 390.30624Q458.57812 389.94687 458.48438 389.3375Q458.40625 388.91562 458.40625 387.60312L458.40625 383.54062L457.26562 383.54062L457.26562 381.57187L458.40625 381.57187L458.40625 379.7125L460.89062 378.275L460.89062 381.57187L462.57812 381.57187ZM463.42188 388.24374L465.90625 387.85312Q466.0625 388.57187 466.54688 388.94687Q467.03125 389.32187 467.89062 389.32187Q468.85938 389.32187 469.34375 388.97812Q469.65625 388.72812 469.65625 388.32187Q469.65625 388.04062 469.48438 387.85312Q469.29688 387.68124 468.65625 387.525Q465.67188 386.86874 464.875 386.32187Q463.76562 385.57187 463.76562 384.2125Q463.76562 383.00937 464.71875 382.18124Q465.6875 381.35312 467.6875 381.35312Q469.60938 381.35312 470.53125 381.97812Q471.46875 382.60312 471.82812 383.82187L469.5 384.25937Q469.34375 383.7125 468.92188 383.43124Q468.51562 383.13437 467.73438 383.13437Q466.76562 383.13437 466.34375 383.4Q466.0625 383.60312 466.0625 383.9Q466.0625 384.16562 466.3125 384.35312Q466.64062 384.60312 468.60938 385.05624Q470.57812 385.49374 471.375 386.15Q472.14062 386.80624 472.14062 387.97812Q472.14062 389.25937 471.0625 390.19687Q470.0 391.11874 467.89062 391.11874Q465.98438 391.11874 464.875 390.3375Q463.76562 389.55624 463.42188 388.24374Z" fill-rule="nonzero"/><path fill="#ff6f31" d="M42.0 409.4C42.0 412.7137 39.31371 415.4 36.0 415.4C32.68629 415.4 30.0 412.7137 30.0 409.4C30.0 406.0863 32.68629 403.4 36.0 403.4C39.31371 403.4 42.0 406.0863 42.0 409.4Z" fill-rule="nonzero"/><path fill="#ffffff" d="M51.3125 415.9L51.3125 403.00937L60.859375 403.00937L60.859375 405.19687L53.90625 405.19687L53.90625 408.05624L60.375 408.05624L60.375 410.22812L53.90625 410.22812L53.90625 413.72812L61.109375 413.72812L61.109375 415.9L51.3125 415.9ZM71.859375 415.9L69.5625 415.9L69.5625 414.525Q68.984375 415.32187 68.203125 415.72812Q67.4375 416.11874 66.640625 416.11874Q65.03125 416.11874 63.875 414.82187Q62.734375 413.525 62.734375 411.19687Q62.734375 408.82187 63.84375 407.5875Q64.96875 406.35312 66.671875 406.35312Q68.234375 406.35312 69.390625 407.65L69.390625 403.00937L71.859375 403.00937L71.859375 415.9ZM65.265625 411.025Q65.265625 412.525 65.671875 413.19687Q66.265625 414.16562 67.34375 414.16562Q68.203125 414.16562 68.796875 413.44687Q69.390625 412.7125 69.390625 411.275Q69.390625 409.66562 68.8125 408.9625Q68.234375 408.24374 67.328125 408.24374Q66.453125 408.24374 65.859375 408.94687Q65.265625 409.63437 65.265625 411.025ZM80.4375 415.9L80.4375 414.50937Q79.921875 415.24374 79.09375 415.68124Q78.265625 416.11874 77.34375 416.11874Q76.40625 416.11874 75.65625 415.7125Q74.90625 415.29062 74.5625 414.54062Q74.234375 413.79062 74.234375 412.47812L74.234375 406.57187L76.703125 406.57187L76.703125 410.85312Q76.703125 412.82187 76.84375 413.275Q76.984375 413.7125 77.34375 413.97812Q77.703125 414.22812 78.25 414.22812Q78.890625 414.22812 79.390625 413.88437Q79.890625 413.54062 80.078125 413.025Q80.265625 412.50937 80.265625 410.50937L80.265625 406.57187L82.734375 406.57187L82.734375 415.9L80.4375 415.9ZM93.4375 409.32187L91.0 409.75937Q90.875 409.04062 90.4375 408.66562Q90.0 408.29062 89.3125 408.29062Q88.390625 408.29062 87.828125 408.93124Q87.28125 409.57187 87.28125 411.07187Q87.28125 412.72812 87.84375 413.41562Q88.40625 414.10312 89.34375 414.10312Q90.046875 414.10312 90.484375 413.69687Q90.9375 413.29062 91.125 412.32187L93.546875 412.72812Q93.171875 414.4 92.09375 415.25937Q91.03125 416.11874 89.234375 416.11874Q87.1875 416.11874 85.96875 414.82187Q84.75 413.525 84.75 411.24374Q84.75 408.93124 85.96875 407.65Q87.1875 406.35312 89.28125 406.35312Q90.984375 406.35312 91.984375 407.0875Q92.984375 407.82187 93.4375 409.32187ZM97.140625 409.41562L94.890625 409.00937Q95.28125 407.65 96.203125 407.00937Q97.125 406.35312 98.9375 406.35312Q100.59375 406.35312 101.390625 406.74374Q102.203125 407.13437 102.53125 407.74374Q102.875 408.3375 102.875 409.94687L102.84375 412.8375Q102.84375 414.05624 102.953125 414.65Q103.078125 415.22812 103.40625 415.9L100.96875 415.9Q100.859375 415.65 100.71875 415.16562Q100.65625 414.94687 100.640625 414.88437Q100.0 415.49374 99.28125 415.80624Q98.5625 416.11874 97.75 416.11874Q96.296875 416.11874 95.46875 415.3375Q94.640625 414.54062 94.640625 413.35312Q94.640625 412.55624 95.015625 411.94687Q95.390625 411.32187 96.078125 410.99374Q96.765625 410.66562 98.046875 410.41562Q99.78125 410.0875 100.4375 409.80624L100.4375 409.55624Q100.4375 408.85312 100.078125 408.55624Q99.734375 408.24374 98.765625 408.24374Q98.109375 408.24374 97.734375 408.50937Q97.359375 408.75937 97.140625 409.41562ZM100.4375 411.41562Q99.96875 411.57187 98.9375 411.79062Q97.90625 412.00937 97.59375 412.22812Q97.109375 412.57187 97.109375 413.10312Q97.109375 413.61874 97.5 413.99374Q97.890625 414.36874 98.484375 414.36874Q99.15625 414.36874 99.75 413.93124Q100.203125 413.60312 100.34375 413.11874Q100.4375 412.79062 100.4375 411.91562L100.4375 411.41562ZM109.578125 406.57187L109.578125 408.54062L107.890625 408.54062L107.890625 412.29062Q107.890625 413.43124 107.9375 413.63437Q107.984375 413.82187 108.15625 413.94687Q108.328125 414.05624 108.578125 414.05624Q108.90625 414.05624 109.5625 413.82187L109.78125 415.74374Q108.90625 416.11874 107.828125 416.11874Q107.15625 416.11874 106.609375 415.9Q106.078125 415.66562 105.828125 415.30624Q105.578125 414.94687 105.484375 414.3375Q105.40625 413.91562 105.40625 412.60312L105.40625 408.54062L104.265625 408.54062L104.265625 406.57187L105.40625 406.57187L105.40625 404.7125L107.890625 403.275L107.890625 406.57187L109.578125 406.57187ZM111.296875 405.30624L111.296875 403.00937L113.765625 403.00937L113.765625 405.30624L111.296875 405.30624ZM111.296875 415.9L111.296875 406.57187L113.765625 406.57187L113.765625 415.9L111.296875 415.9ZM115.71875 411.10312Q115.71875 409.86874 116.328125 408.72812Q116.9375 407.57187 118.046875 406.9625Q119.15625 406.35312 120.53125 406.35312Q122.640625 406.35312 124.0 407.72812Q125.359375 409.10312 125.359375 411.2125Q125.359375 413.32187 123.984375 414.72812Q122.625 416.11874 120.546875 416.11874Q119.265625 416.11874 118.09375 415.54062Q116.9375 414.94687 116.328125 413.8375Q115.71875 412.7125 115.71875 411.10312ZM118.25 411.22812Q118.25 412.61874 118.90625 413.36874Q119.578125 414.10312 120.53125 414.10312Q121.5 414.10312 122.15625 413.36874Q122.8125 412.61874 122.8125 411.2125Q122.8125 409.8375 122.15625 409.10312Q121.5 408.36874 120.53125 408.36874Q119.578125 408.36874 118.90625 409.10312Q118.25 409.8375 118.25 411.22812ZM135.78125 415.9L133.3125 415.9L133.3125 411.13437Q133.3125 409.61874 133.15625 409.18124Q133.0 408.74374 132.64062 408.49374Q132.28125 408.24374 131.78125 408.24374Q131.14062 408.24374 130.625 408.60312Q130.125 408.94687 129.9375 409.525Q129.75 410.10312 129.75 411.66562L129.75 415.9L127.28125 415.9L127.28125 406.57187L129.5625 406.57187L129.5625 407.93124Q130.79688 406.35312 132.64062 406.35312Q133.46875 406.35312 134.14062 406.65Q134.8125 406.94687 135.15625 407.4Q135.51562 407.85312 135.64062 408.44687Q135.78125 409.025 135.78125 410.10312L135.78125 415.9ZM154.70312 414.32187L153.21875 416.22812Q152.10938 415.69687 151.10938 414.75937Q150.32812 415.4625 149.4375 415.80624Q148.5625 416.13437 147.35938 416.13437Q144.9375 416.13437 143.73438 414.775Q142.79688 413.72812 142.79688 412.36874Q142.79688 411.13437 143.53125 410.15Q144.26562 409.15 145.73438 408.41562Q145.07812 407.63437 144.73438 406.93124Q144.40625 406.22812 144.40625 405.5875Q144.40625 404.41562 145.34375 403.60312Q146.28125 402.79062 148.01562 402.79062Q149.6875 402.79062 150.625 403.65Q151.5625 404.49374 151.5625 405.72812Q151.5625 406.50937 151.09375 407.2125Q150.625 407.91562 149.21875 408.80624L151.01562 411.16562Q151.32812 410.60312 151.54688 409.69687L153.78125 410.2125Q153.45312 411.4 153.20312 411.94687Q152.95312 412.49374 152.67188 412.86874Q153.09375 413.25937 153.75 413.72812Q154.40625 414.18124 154.70312 414.32187ZM147.98438 407.32187L148.65625 406.80624Q149.39062 406.24374 149.39062 405.68124Q149.39062 405.19687 149.03125 404.86874Q148.6875 404.54062 148.07812 404.54062Q147.48438 404.54062 147.14062 404.8375Q146.8125 405.11874 146.8125 405.50937Q146.8125 405.9625 147.375 406.61874L147.98438 407.32187ZM147.01562 410.00937Q146.17188 410.43124 145.75 411.04062Q145.32812 411.65 145.32812 412.275Q145.32812 413.07187 145.84375 413.5875Q146.375 414.0875 147.25 414.0875Q147.82812 414.0875 148.35938 413.86874Q148.90625 413.63437 149.53125 413.10312L147.01562 410.00937ZM161.3125 415.9L161.3125 403.00937L170.85938 403.00937L170.85938 405.19687L163.90625 405.19687L163.90625 408.05624L170.375 408.05624L170.375 410.22812L163.90625 410.22812L163.90625 413.72812L171.10938 413.72812L171.10938 415.9L161.3125 415.9ZM181.78125 415.9L179.3125 415.9L179.3125 411.13437Q179.3125 409.61874 179.15625 409.18124Q179.0 408.74374 178.64062 408.49374Q178.28125 408.24374 177.78125 408.24374Q177.14062 408.24374 176.625 408.60312Q176.125 408.94687 175.9375 409.525Q175.75 410.10312 175.75 411.66562L175.75 415.9L173.28125 415.9L173.28125 406.57187L175.5625 406.57187L175.5625 407.93124Q176.79688 406.35312 178.64062 406.35312Q179.46875 406.35312 180.14062 406.65Q180.8125 406.94687 181.15625 407.4Q181.51562 407.85312 181.64062 408.44687Q181.78125 409.025 181.78125 410.10312L181.78125 415.9ZM188.57812 406.57187L188.57812 408.54062L186.89062 408.54062L186.89062 412.29062Q186.89062 413.43124 186.9375 413.63437Q186.98438 413.82187 187.15625 413.94687Q187.32812 414.05624 187.57812 414.05624Q187.90625 414.05624 188.5625 413.82187L188.78125 415.74374Q187.90625 416.11874 186.82812 416.11874Q186.15625 416.11874 185.60938 415.9Q185.07812 415.66562 184.82812 415.30624Q184.57812 414.94687 184.48438 414.3375Q184.40625 413.91562 184.40625 412.60312L184.40625 408.54062L183.26562 408.54062L183.26562 406.57187L184.40625 406.57187L184.40625 404.7125L186.89062 403.275L186.89062 406.57187L188.57812 406.57187ZM192.65625 415.9L190.1875 415.9L190.1875 406.57187L192.48438 406.57187L192.48438 407.9Q193.0625 406.94687 193.53125 406.65Q194.01562 406.35312 194.60938 406.35312Q195.45312 406.35312 196.23438 406.82187L195.46875 408.97812Q194.84375 408.57187 194.3125 408.57187Q193.79688 408.57187 193.42188 408.85312Q193.0625 409.13437 192.85938 409.88437Q192.65625 410.63437 192.65625 413.00937L192.65625 415.9ZM202.70312 412.93124L205.15625 413.3375Q204.6875 414.69687 203.65625 415.41562Q202.64062 416.11874 201.09375 416.11874Q198.65625 416.11874 197.5 414.525Q196.57812 413.24374 196.57812 411.30624Q196.57812 408.97812 197.78125 407.66562Q199.0 406.35312 200.85938 406.35312Q202.9375 406.35312 204.14062 407.72812Q205.34375 409.10312 205.29688 411.94687L199.10938 411.94687Q199.125 413.04062 199.6875 413.65Q200.26562 414.25937 201.125 414.25937Q201.70312 414.25937 202.09375 413.94687Q202.5 413.63437 202.70312 412.93124ZM202.84375 410.43124Q202.8125 409.35312 202.28125 408.80624Q201.75 408.24374 201.0 408.24374Q200.1875 408.24374 199.67188 408.8375Q199.14062 409.41562 199.14062 410.43124L202.84375 410.43124ZM207.21875 406.57187L209.53125 406.57187L209.53125 407.93124Q209.96875 407.22812 210.73438 406.79062Q211.5 406.35312 212.4375 406.35312Q214.0625 406.35312 215.1875 407.63437Q216.32812 408.9 216.32812 411.18124Q216.32812 413.525 215.1875 414.82187Q214.04688 416.11874 212.42188 416.11874Q211.64062 416.11874 211.01562 415.80624Q210.39062 415.49374 209.6875 414.74374L209.6875 419.44687L207.21875 419.44687L207.21875 406.57187ZM209.67188 411.07187Q209.67188 412.65 210.28125 413.4Q210.90625 414.15 211.8125 414.15Q212.67188 414.15 213.23438 413.4625Q213.8125 412.775 213.8125 411.19687Q213.8125 409.72812 213.21875 409.025Q212.64062 408.30624 211.76562 408.30624Q210.85938 408.30624 210.26562 409.00937Q209.67188 409.69687 209.67188 411.07187ZM220.65625 415.9L218.1875 415.9L218.1875 406.57187L220.48438 406.57187L220.48438 407.9Q221.0625 406.94687 221.53125 406.65Q222.01562 406.35312 222.60938 406.35312Q223.45312 406.35312 224.23438 406.82187L223.46875 408.97812Q222.84375 408.57187 222.3125 408.57187Q221.79688 408.57187 221.42188 408.85312Q221.0625 409.13437 220.85938 409.88437Q220.65625 410.63437 220.65625 413.00937L220.65625 415.9ZM230.70312 412.93124L233.15625 413.3375Q232.6875 414.69687 231.65625 415.41562Q230.64062 416.11874 229.09375 416.11874Q226.65625 416.11874 225.5 414.525Q224.57812 413.24374 224.57812 411.30624Q224.57812 408.97812 225.78125 407.66562Q227.0 406.35312 228.85938 406.35312Q230.9375 406.35312 232.14062 407.72812Q233.34375 409.10312 233.29688 411.94687L227.10938 411.94687Q227.125 413.04062 227.6875 413.65Q228.26562 414.25937 229.125 414.25937Q229.70312 414.25937 230.09375 413.94687Q230.5 413.63437 230.70312 412.93124ZM230.84375 410.43124Q230.8125 409.35312 230.28125 408.80624Q229.75 408.24374 229.0 408.24374Q228.1875 408.24374 227.67188 408.8375Q227.14062 409.41562 227.14062 410.43124L230.84375 410.43124ZM243.78125 415.9L241.3125 415.9L241.3125 411.13437Q241.3125 409.61874 241.15625 409.18124Q241.0 408.74374 240.64062 408.49374Q240.28125 408.24374 239.78125 408.24374Q239.14062 408.24374 238.625 408.60312Q238.125 408.94687 237.9375 409.525Q237.75 410.10312 237.75 411.66562L237.75 415.9L235.28125 415.9L235.28125 406.57187L237.5625 406.57187L237.5625 407.93124Q238.79688 406.35312 240.64062 406.35312Q241.46875 406.35312 242.14062 406.65Q242.8125 406.94687 243.15625 407.4Q243.51562 407.85312 243.64062 408.44687Q243.78125 409.025 243.78125 410.10312L243.78125 415.9ZM251.70312 412.93124L254.15625 413.3375Q253.6875 414.69687 252.65625 415.41562Q251.64062 416.11874 250.09375 416.11874Q247.65625 416.11874 246.5 414.525Q245.57812 413.24374 245.57812 411.30624Q245.57812 408.97812 246.78125 407.66562Q248.0 406.35312 249.85938 406.35312Q251.9375 406.35312 253.14062 407.72812Q254.34375 409.10312 254.29688 411.94687L248.10938 411.94687Q248.125 413.04062 248.6875 413.65Q249.26562 414.25937 250.125 414.25937Q250.70312 414.25937 251.09375 413.94687Q251.5 413.63437 251.70312 412.93124ZM251.84375 410.43124Q251.8125 409.35312 251.28125 408.80624Q250.75 408.24374 250.0 408.24374Q249.1875 408.24374 248.67188 408.8375Q248.14062 409.41562 248.14062 410.43124L251.84375 410.43124ZM262.4375 415.9L262.4375 414.50937Q261.92188 415.24374 261.09375 415.68124Q260.26562 416.11874 259.34375 416.11874Q258.40625 416.11874 257.65625 415.7125Q256.90625 415.29062 256.5625 414.54062Q256.23438 413.79062 256.23438 412.47812L256.23438 406.57187L258.70312 406.57187L258.70312 410.85312Q258.70312 412.82187 258.84375 413.275Q258.98438 413.7125 259.34375 413.97812Q259.70312 414.22812 260.25 414.22812Q260.89062 414.22812 261.39062 413.88437Q261.89062 413.54062 262.07812 413.025Q262.26562 412.50937 262.26562 410.50937L262.26562 406.57187L264.73438 406.57187L264.73438 415.9L262.4375 415.9ZM269.65625 415.9L267.1875 415.9L267.1875 406.57187L269.48438 406.57187L269.48438 407.9Q270.0625 406.94687 270.53125 406.65Q271.01562 406.35312 271.60938 406.35312Q272.45312 406.35312 273.23438 406.82187L272.46875 408.97812Q271.84375 408.57187 271.3125 408.57187Q270.79688 408.57187 270.42188 408.85312Q270.0625 409.13437 269.85938 409.88437Q269.65625 410.63437 269.65625 413.00937L269.65625 415.9ZM273.42188 413.24374L275.90625 412.85312Q276.0625 413.57187 276.54688 413.94687Q277.03125 414.32187 277.89062 414.32187Q278.85938 414.32187 279.34375 413.97812Q279.65625 413.72812 279.65625 413.32187Q279.65625 413.04062 279.48438 412.85312Q279.29688 412.68124 278.65625 412.525Q275.67188 411.86874 274.875 411.32187Q273.76562 410.57187 273.76562 409.2125Q273.76562 408.00937 274.71875 407.18124Q275.6875 406.35312 277.6875 406.35312Q279.60938 406.35312 280.53125 406.97812Q281.46875 407.60312 281.82812 408.82187L279.5 409.25937Q279.34375 408.7125 278.92188 408.43124Q278.51562 408.13437 277.73438 408.13437Q276.76562 408.13437 276.34375 408.4Q276.0625 408.60312 276.0625 408.9Q276.0625 409.16562 276.3125 409.35312Q276.64062 409.60312 278.60938 410.05624Q280.57812 410.49374 281.375 411.15Q282.14062 411.80624 282.14062 412.97812Q282.14062 414.25937 281.0625 415.19687Q280.0 416.11874 277.89062 416.11874Q275.98438 416.11874 274.875 415.3375Q273.76562 414.55624 273.42188 413.24374ZM286.75 403.00937L286.75 407.75937Q287.95312 406.35312 289.60938 406.35312Q290.46875 406.35312 291.14062 406.68124Q291.82812 406.99374 292.17188 407.49374Q292.53125 407.97812 292.65625 408.57187Q292.78125 409.16562 292.78125 410.43124L292.78125 415.9L290.3125 415.9L290.3125 410.9625Q290.3125 409.49374 290.17188 409.10312Q290.03125 408.7125 289.67188 408.47812Q289.3125 408.24374 288.78125 408.24374Q288.17188 408.24374 287.6875 408.54062Q287.20312 408.8375 286.96875 409.44687Q286.75 410.04062 286.75 411.22812L286.75 415.9L284.28125 415.9L284.28125 403.00937L286.75 403.00937ZM295.29688 405.30624L295.29688 403.00937L297.76562 403.00937L297.76562 405.30624L295.29688 405.30624ZM295.29688 415.9L295.29688 406.57187L297.76562 406.57187L297.76562 415.9L295.29688 415.9ZM300.21875 406.57187L302.53125 406.57187L302.53125 407.93124Q302.96875 407.22812 303.73438 406.79062Q304.5 406.35312 305.4375 406.35312Q307.0625 406.35312 308.1875 407.63437Q309.32812 408.9 309.32812 411.18124Q309.32812 413.525 308.1875 414.82187Q307.04688 416.11874 305.42188 416.11874Q304.64062 416.11874 304.01562 415.80624Q303.39062 415.49374 302.6875 414.74374L302.6875 419.44687L300.21875 419.44687L300.21875 406.57187ZM302.67188 411.07187Q302.67188 412.65 303.28125 413.4Q303.90625 414.15 304.8125 414.15Q305.67188 414.15 306.23438 413.4625Q306.8125 412.775 306.8125 411.19687Q306.8125 409.72812 306.21875 409.025Q305.64062 408.30624 304.76562 408.30624Q303.85938 408.30624 303.26562 409.00937Q302.67188 409.69687 302.67188 411.07187Z" fill-rule="nonzero"/><path fill="#1c7685" d="M338.0 409.4C338.0 412.7137 335.31372 415.4 332.0 415.4C328.68628 415.4 326.0 412.7137 326.0 409.4C326.0 406.0863 328.68628 403.4 332.0 403.4C335.31372 403.4 338.0 406.0863 338.0 409.4Z" fill-rule="nonzero"/><path fill="#ffffff" d="M347.28125 415.9L347.28125 403.00937L351.17188 403.00937L353.5 411.80624L355.8125 403.00937L359.71875 403.00937L359.71875 415.9L357.29688 415.9L357.29688 405.75937L354.75 415.9L352.23438 415.9L349.6875 405.75937L349.6875 415.9L347.28125 415.9ZM367.70312 412.93124L370.15625 413.3375Q369.6875 414.69687 368.65625 415.41562Q367.64062 416.11874 366.09375 416.11874Q363.65625 416.11874 362.5 414.525Q361.57812 413.24374 361.57812 411.30624Q361.57812 408.97812 362.78125 407.66562Q364.0 406.35312 365.85938 406.35312Q367.9375 406.35312 369.14062 407.72812Q370.34375 409.10312 370.29688 411.94687L364.10938 411.94687Q364.125 413.04062 364.6875 413.65Q365.26562 414.25937 366.125 414.25937Q366.70312 414.25937 367.09375 413.94687Q367.5 413.63437 367.70312 412.93124ZM367.84375 410.43124Q367.8125 409.35312 367.28125 408.80624Q366.75 408.24374 366.0 408.24374Q365.1875 408.24374 364.67188 408.8375Q364.14062 409.41562 364.14062 410.43124L367.84375 410.43124ZM380.85938 415.9L378.5625 415.9L378.5625 414.525Q377.98438 415.32187 377.20312 415.72812Q376.4375 416.11874 375.64062 416.11874Q374.03125 416.11874 372.875 414.82187Q371.73438 413.525 371.73438 411.19687Q371.73438 408.82187 372.84375 407.5875Q373.96875 406.35312 375.67188 406.35312Q377.23438 406.35312 378.39062 407.65L378.39062 403.00937L380.85938 403.00937L380.85938 415.9ZM374.26562 411.025Q374.26562 412.525 374.67188 413.19687Q375.26562 414.16562 376.34375 414.16562Q377.20312 414.16562 377.79688 413.44687Q378.39062 412.7125 378.39062 411.275Q378.39062 409.66562 377.8125 408.9625Q377.23438 408.24374 376.32812 408.24374Q375.45312 408.24374 374.85938 408.94687Q374.26562 409.63437 374.26562 411.025ZM383.29688 405.30624L383.29688 403.00937L385.76562 403.00937L385.76562 405.30624L383.29688 405.30624ZM383.29688 415.9L383.29688 406.57187L385.76562 406.57187L385.76562 415.9L383.29688 415.9ZM396.4375 409.32187L394.0 409.75937Q393.875 409.04062 393.4375 408.66562Q393.0 408.29062 392.3125 408.29062Q391.39062 408.29062 390.82812 408.93124Q390.28125 409.57187 390.28125 411.07187Q390.28125 412.72812 390.84375 413.41562Q391.40625 414.10312 392.34375 414.10312Q393.04688 414.10312 393.48438 413.69687Q393.9375 413.29062 394.125 412.32187L396.54688 412.72812Q396.17188 414.4 395.09375 415.25937Q394.03125 416.11874 392.23438 416.11874Q390.1875 416.11874 388.96875 414.82187Q387.75 413.525 387.75 411.24374Q387.75 408.93124 388.96875 407.65Q390.1875 406.35312 392.28125 406.35312Q393.98438 406.35312 394.98438 407.0875Q395.98438 407.82187 396.4375 409.32187ZM400.14062 409.41562L397.89062 409.00937Q398.28125 407.65 399.20312 407.00937Q400.125 406.35312 401.9375 406.35312Q403.59375 406.35312 404.39062 406.74374Q405.20312 407.13437 405.53125 407.74374Q405.875 408.3375 405.875 409.94687L405.84375 412.8375Q405.84375 414.05624 405.95312 414.65Q406.07812 415.22812 406.40625 415.9L403.96875 415.9Q403.85938 415.65 403.71875 415.16562Q403.65625 414.94687 403.64062 414.88437Q403.0 415.49374 402.28125 415.80624Q401.5625 416.11874 400.75 416.11874Q399.29688 416.11874 398.46875 415.3375Q397.64062 414.54062 397.64062 413.35312Q397.64062 412.55624 398.01562 411.94687Q398.39062 411.32187 399.07812 410.99374Q399.76562 410.66562 401.04688 410.41562Q402.78125 410.0875 403.4375 409.80624L403.4375 409.55624Q403.4375 408.85312 403.07812 408.55624Q402.73438 408.24374 401.76562 408.24374Q401.10938 408.24374 400.73438 408.50937Q400.35938 408.75937 400.14062 409.41562ZM403.4375 411.41562Q402.96875 411.57187 401.9375 411.79062Q400.90625 412.00937 400.59375 412.22812Q400.10938 412.57187 400.10938 413.10312Q400.10938 413.61874 400.5 413.99374Q400.89062 414.36874 401.48438 414.36874Q402.15625 414.36874 402.75 413.93124Q403.20312 413.60312 403.34375 413.11874Q403.4375 412.79062 403.4375 411.91562L403.4375 411.41562ZM408.29688 415.9L408.29688 403.00937L410.76562 403.00937L410.76562 415.9L408.29688 415.9ZM417.65625 411.7125L420.1875 411.4625Q420.40625 412.72812 421.10938 413.3375Q421.8125 413.93124 423.0 413.93124Q424.25 413.93124 424.89062 413.4Q425.53125 412.86874 425.53125 412.15Q425.53125 411.69687 425.25 411.38437Q424.98438 411.05624 424.32812 410.82187Q423.85938 410.66562 422.23438 410.25937Q420.14062 409.74374 419.29688 408.97812Q418.10938 407.91562 418.10938 406.38437Q418.10938 405.4 418.67188 404.55624Q419.23438 403.69687 420.28125 403.24374Q421.32812 402.79062 422.8125 402.79062Q425.25 402.79062 426.46875 403.85312Q427.70312 404.91562 427.76562 406.69687L425.15625 406.80624Q424.98438 405.82187 424.4375 405.38437Q423.89062 404.94687 422.79688 404.94687Q421.65625 404.94687 421.01562 405.41562Q420.60938 405.7125 420.60938 406.2125Q420.60938 406.66562 420.98438 406.99374Q421.48438 407.41562 423.375 407.86874Q425.28125 408.30624 426.1875 408.79062Q427.09375 409.25937 427.60938 410.10312Q428.125 410.93124 428.125 412.15Q428.125 413.25937 427.5 414.22812Q426.89062 415.18124 425.76562 415.66562Q424.64062 416.13437 422.96875 416.13437Q420.53125 416.13437 419.21875 415.00937Q417.90625 413.86874 417.65625 411.7125ZM430.21875 406.57187L432.53125 406.57187L432.53125 407.93124Q432.96875 407.22812 433.73438 406.79062Q434.5 406.35312 435.4375 406.35312Q437.0625 406.35312 438.1875 407.63437Q439.32812 408.9 439.32812 411.18124Q439.32812 413.525 438.1875 414.82187Q437.04688 416.11874 435.42188 416.11874Q434.64062 416.11874 434.01562 415.80624Q433.39062 415.49374 432.6875 414.74374L432.6875 419.44687L430.21875 419.44687L430.21875 406.57187ZM432.67188 411.07187Q432.67188 412.65 433.28125 413.4Q433.90625 414.15 434.8125 414.15Q435.67188 414.15 436.23438 413.4625Q436.8125 412.775 436.8125 411.19687Q436.8125 409.72812 436.21875 409.025Q435.64062 408.30624 434.76562 408.30624Q433.85938 408.30624 433.26562 409.00937Q432.67188 409.69687 432.67188 411.07187ZM446.70312 412.93124L449.15625 413.3375Q448.6875 414.69687 447.65625 415.41562Q446.64062 416.11874 445.09375 416.11874Q442.65625 416.11874 441.5 414.525Q440.57812 413.24374 440.57812 411.30624Q440.57812 408.97812 441.78125 407.66562Q443.0 406.35312 444.85938 406.35312Q446.9375 406.35312 448.14062 407.72812Q449.34375 409.10312 449.29688 411.94687L443.10938 411.94687Q443.125 413.04062 443.6875 413.65Q444.26562 414.25937 445.125 414.25937Q445.70312 414.25937 446.09375 413.94687Q446.5 413.63437 446.70312 412.93124ZM446.84375 410.43124Q446.8125 409.35312 446.28125 408.80624Q445.75 408.24374 445.0 408.24374Q444.1875 408.24374 443.67188 408.8375Q443.14062 409.41562 443.14062 410.43124L446.84375 410.43124ZM459.4375 409.32187L457.0 409.75937Q456.875 409.04062 456.4375 408.66562Q456.0 408.29062 455.3125 408.29062Q454.39062 408.29062 453.82812 408.93124Q453.28125 409.57187 453.28125 411.07187Q453.28125 412.72812 453.84375 413.41562Q454.40625 414.10312 455.34375 414.10312Q456.04688 414.10312 456.48438 413.69687Q456.9375 413.29062 457.125 412.32187L459.54688 412.72812Q459.17188 414.4 458.09375 415.25937Q457.03125 416.11874 455.23438 416.11874Q453.1875 416.11874 451.96875 414.82187Q450.75 413.525 450.75 411.24374Q450.75 408.93124 451.96875 407.65Q453.1875 406.35312 455.28125 406.35312Q456.98438 406.35312 457.98438 407.0875Q458.98438 407.82187 459.4375 409.32187ZM461.29688 405.30624L461.29688 403.00937L463.76562 403.00937L463.76562 405.30624L461.29688 405.30624ZM461.29688 415.9L461.29688 406.57187L463.76562 406.57187L463.76562 415.9L461.29688 415.9ZM468.14062 409.41562L465.89062 409.00937Q466.28125 407.65 467.20312 407.00937Q468.125 406.35312 469.9375 406.35312Q471.59375 406.35312 472.39062 406.74374Q473.20312 407.13437 473.53125 407.74374Q473.875 408.3375 473.875 409.94687L473.84375 412.8375Q473.84375 414.05624 473.95312 414.65Q474.07812 415.22812 474.40625 415.9L471.96875 415.9Q471.85938 415.65 471.71875 415.16562Q471.65625 414.94687 471.64062 414.88437Q471.0 415.49374 470.28125 415.80624Q469.5625 416.11874 468.75 416.11874Q467.29688 416.11874 466.46875 415.3375Q465.64062 414.54062 465.64062 413.35312Q465.64062 412.55624 466.01562 411.94687Q466.39062 411.32187 467.07812 410.99374Q467.76562 410.66562 469.04688 410.41562Q470.78125 410.0875 471.4375 409.80624L471.4375 409.55624Q471.4375 408.85312 471.07812 408.55624Q470.73438 408.24374 469.76562 408.24374Q469.10938 408.24374 468.73438 408.50937Q468.35938 408.75937 468.14062 409.41562ZM471.4375 411.41562Q470.96875 411.57187 469.9375 411.79062Q468.90625 412.00937 468.59375 412.22812Q468.10938 412.57187 468.10938 413.10312Q468.10938 413.61874 468.5 413.99374Q468.89062 414.36874 469.48438 414.36874Q470.15625 414.36874 470.75 413.93124Q471.20312 413.60312 471.34375 413.11874Q471.4375 412.79062 471.4375 411.91562L471.4375 411.41562ZM476.29688 415.9L476.29688 403.00937L478.76562 403.00937L478.76562 415.9L476.29688 415.9ZM485.57812 406.57187L485.57812 408.54062L483.89062 408.54062L483.89062 412.29062Q483.89062 413.43124 483.9375 413.63437Q483.98438 413.82187 484.15625 413.94687Q484.32812 414.05624 484.57812 414.05624Q484.90625 414.05624 485.5625 413.82187L485.78125 415.74374Q484.90625 416.11874 483.82812 416.11874Q483.15625 416.11874 482.60938 415.9Q482.07812 415.66562 481.82812 415.30624Q481.57812 414.94687 481.48438 414.3375Q481.40625 413.91562 481.40625 412.60312L481.40625 408.54062L480.26562 408.54062L480.26562 406.57187L481.40625 406.57187L481.40625 404.7125L483.89062 403.275L483.89062 406.57187L485.57812 406.57187ZM486.125 406.57187L488.75 406.57187L490.98438 413.19687L493.15625 406.57187L495.71875 406.57187L492.42188 415.54062L491.84375 417.18124Q491.51562 417.99374 491.21875 418.41562Q490.92188 418.85312 490.53125 419.11874Q490.15625 419.38437 489.59375 419.525Q489.04688 419.68124 488.34375 419.68124Q487.625 419.68124 486.9375 419.54062L486.71875 417.60312Q487.29688 417.7125 487.76562 417.7125Q488.625 417.7125 489.03125 417.2125Q489.45312 416.7125 489.67188 415.93124L486.125 406.57187ZM502.3125 415.9L502.3125 403.00937L507.79688 403.00937Q509.85938 403.00937 510.79688 403.36874Q511.73438 403.7125 512.2969 404.60312Q512.8594 405.47812 512.8594 406.63437Q512.8594 408.07187 512.0 409.025Q511.15625 409.9625 509.45312 410.2125Q510.29688 410.7125 510.84375 411.30624Q511.39062 411.88437 512.3281 413.38437L513.90625 415.9L510.79688 415.9L508.90625 413.10312Q507.90625 411.5875 507.53125 411.19687Q507.17188 410.80624 506.75 410.66562Q506.34375 410.525 505.45312 410.525L504.92188 410.525L504.92188 415.9L502.3125 415.9ZM504.92188 408.4625L506.84375 408.4625Q508.71875 408.4625 509.1875 408.30624Q509.65625 408.15 509.90625 407.75937Q510.17188 407.36874 510.17188 406.79062Q510.17188 406.15 509.82812 405.74374Q509.48438 405.3375 508.84375 405.24374Q508.53125 405.19687 506.95312 405.19687L504.92188 405.19687L504.92188 408.4625ZM520.7031 412.93124L523.15625 413.3375Q522.6875 414.69687 521.65625 415.41562Q520.6406 416.11874 519.09375 416.11874Q516.65625 416.11874 515.5 414.525Q514.5781 413.24374 514.5781 411.30624Q514.5781 408.97812 515.78125 407.66562Q517.0 406.35312 518.8594 406.35312Q520.9375 406.35312 522.1406 407.72812Q523.34375 409.10312 523.2969 411.94687L517.1094 411.94687Q517.125 413.04062 517.6875 413.65Q518.2656 414.25937 519.125 414.25937Q519.7031 414.25937 520.09375 413.94687Q520.5 413.63437 520.7031 412.93124ZM520.84375 410.43124Q520.8125 409.35312 520.28125 408.80624Q519.75 408.24374 519.0 408.24374Q518.1875 408.24374 517.6719 408.8375Q517.1406 409.41562 517.1406 410.43124L520.84375 410.43124ZM524.4219 413.24374L526.90625 412.85312Q527.0625 413.57187 527.5469 413.94687Q528.03125 414.32187 528.8906 414.32187Q529.8594 414.32187 530.34375 413.97812Q530.65625 413.72812 530.65625 413.32187Q530.65625 413.04062 530.4844 412.85312Q530.2969 412.68124 529.65625 412.525Q526.6719 411.86874 525.875 411.32187Q524.7656 410.57187 524.7656 409.2125Q524.7656 408.00937 525.71875 407.18124Q526.6875 406.35312 528.6875 406.35312Q530.6094 406.35312 531.53125 406.97812Q532.46875 407.60312 532.8281 408.82187L530.5 409.25937Q530.34375 408.7125 529.9219 408.43124Q529.5156 408.13437 528.7344 408.13437Q527.7656 408.13437 527.34375 408.4Q527.0625 408.60312 527.0625 408.9Q527.0625 409.16562 527.3125 409.35312Q527.6406 409.60312 529.6094 410.05624Q531.5781 410.49374 532.375 411.15Q533.1406 411.80624 533.1406 412.97812Q533.1406 414.25937 532.0625 415.19687Q531.0 416.11874 528.8906 416.11874Q526.9844 416.11874 525.875 415.3375Q524.7656 414.55624 524.4219 413.24374ZM540.7031 412.93124L543.15625 413.3375Q542.6875 414.69687 541.65625 415.41562Q540.6406 416.11874 539.09375 416.11874Q536.65625 416.11874 535.5 414.525Q534.5781 413.24374 534.5781 411.30624Q534.5781 408.97812 535.78125 407.66562Q537.0 406.35312 538.8594 406.35312Q540.9375 406.35312 542.1406 407.72812Q543.34375 409.10312 543.2969 411.94687L537.1094 411.94687Q537.125 413.04062 537.6875 413.65Q538.2656 414.25937 539.125 414.25937Q539.7031 414.25937 540.09375 413.94687Q540.5 413.63437 540.7031 412.93124ZM540.84375 410.43124Q540.8125 409.35312 540.28125 408.80624Q539.75 408.24374 539.0 408.24374Q538.1875 408.24374 537.6719 408.8375Q537.1406 409.41562 537.1406 410.43124L540.84375 410.43124ZM547.1406 409.41562L544.8906 409.00937Q545.28125 407.65 546.2031 407.00937Q547.125 406.35312 548.9375 406.35312Q550.59375 406.35312 551.3906 406.74374Q552.2031 407.13437 552.53125 407.74374Q552.875 408.3375 552.875 409.94687L552.84375 412.8375Q552.84375 414.05624 552.9531 414.65Q553.0781 415.22812 553.40625 415.9L550.96875 415.9Q550.8594 415.65 550.71875 415.16562Q550.65625 414.94687 550.6406 414.88437Q550.0 415.49374 549.28125 415.80624Q548.5625 416.11874 547.75 416.11874Q546.2969 416.11874 545.46875 415.3375Q544.6406 414.54062 544.6406 413.35312Q544.6406 412.55624 545.0156 411.94687Q545.3906 411.32187 546.0781 410.99374Q546.7656 410.66562 548.0469 410.41562Q549.78125 410.0875 550.4375 409.80624L550.4375 409.55624Q550.4375 408.85312 550.0781 408.55624Q549.7344 408.24374 548.7656 408.24374Q548.1094 408.24374 547.7344 408.50937Q547.3594 408.75937 547.1406 409.41562ZM550.4375 411.41562Q549.96875 411.57187 548.9375 411.79062Q547.90625 412.00937 547.59375 412.22812Q547.1094 412.57187 547.1094 413.10312Q547.1094 413.61874 547.5 413.99374Q547.8906 414.36874 548.4844 414.36874Q549.15625 414.36874 549.75 413.93124Q550.2031 413.60312 550.34375 413.11874Q550.4375 412.79062 550.4375 411.91562L550.4375 411.41562ZM557.65625 415.9L555.1875 415.9L555.1875 406.57187L557.4844 406.57187L557.4844 407.9Q558.0625 406.94687 558.53125 406.65Q559.0156 406.35312 559.6094 406.35312Q560.4531 406.35312 561.2344 406.82187L560.46875 408.97812Q559.84375 408.57187 559.3125 408.57187Q558.7969 408.57187 558.4219 408.85312Q558.0625 409.13437 557.8594 409.88437Q557.65625 410.63437 557.65625 413.00937L557.65625 415.9ZM570.4375 409.32187L568.0 409.75937Q567.875 409.04062 567.4375 408.66562Q567.0 408.29062 566.3125 408.29062Q565.3906 408.29062 564.8281 408.93124Q564.28125 409.57187 564.28125 411.07187Q564.28125 412.72812 564.84375 413.41562Q565.40625 414.10312 566.34375 414.10312Q567.0469 414.10312 567.4844 413.69687Q567.9375 413.29062 568.125 412.32187L570.5469 412.72812Q570.1719 414.4 569.09375 415.25937Q568.03125 416.11874 566.2344 416.11874Q564.1875 416.11874 562.96875 414.82187Q561.75 413.525 561.75 411.24374Q561.75 408.93124 562.96875 407.65Q564.1875 406.35312 566.28125 406.35312Q567.9844 406.35312 568.9844 407.0875Q569.9844 407.82187 570.4375 409.32187ZM574.75 403.00937L574.75 407.75937Q575.9531 406.35312 577.6094 406.35312Q578.46875 406.35312 579.1406 406.68124Q579.8281 406.99374 580.1719 407.49374Q580.53125 407.97812 580.65625 408.57187Q580.78125 409.16562 580.78125 410.43124L580.78125 415.9L578.3125 415.9L578.3125 410.9625Q578.3125 409.49374 578.1719 409.10312Q578.03125 408.7125 577.6719 408.47812Q577.3125 408.24374 576.78125 408.24374Q576.1719 408.24374 575.6875 408.54062Q575.2031 408.8375 574.96875 409.44687Q574.75 410.04062 574.75 411.22812L574.75 415.9L572.28125 415.9L572.28125 403.00937L574.75 403.00937Z" fill-rule="nonzero"/></svg>