
        <svg xmlns="http://www.w3.org/2000/svg" xmlns:xlink="http://www.w3.org/1999/xlink" version="1.1" width="3300" 
        height="3132.8047234470305" viewBox="0 0 3300 3132.8047234470305">
			<rect fill="#162341" width="3300" height="3132.8047234470305"/>
			<g transform="scale(15) translate(10, 10)">
				<defs id="SvgjsDefs2722"><linearGradient id="SvgjsLinearGradient2729"><stop id="SvgjsStop2730" stop-color="#8f5e25" offset="0"></stop><stop id="SvgjsStop2731" stop-color="#fbf4a1" offset="0.5"></stop><stop id="SvgjsStop2732" stop-color="#8f5e25" offset="1"></stop></linearGradient></defs><g id="SvgjsG2723" featureKey="symbolFeature-0" transform="matrix(0.13825446314502576,0,0,0.13825446314502576,41.80099886402491,-24.088139920537436)" fill="url(#SvgjsLinearGradient2729)"><path xmlns="http://www.w3.org/2000/svg" d="M779.3,464.9l-63.8,175l-59.3,212.3c-36.3,120.9-96.7,164-207.8,163.8c-95.6-0.1-155-39.5-211.3-128.4l-171.6-290  c-12.6-25.2-5.3-49.8,15.7-61.2c21-11.3,46.7-8.2,64.8,17.2c5.7,8,33.5,44.8,64.2,86.3c0,0,0.1,0.1,0.1,0.1  c13,18.7,30.8,42.2,52.8,71.8l65.9,95.6l55,86.3c5.1,9.2,15.5,13.7,24,8.5c8.2-5,10.8-12.9,5.2-24.1l-36.2-76.1  c-2.1-4.3,3.5-8.1,6.7-4.5l86.8,112.7c7.4,8.3,22.5,13.2,31.4,5.3c8.9-7.9,7.6-21.5,0.5-30.9l-73.2-103.8c-2.7-3.5,2.3-7.8,5.4-4.7  l102.1,107.1c7.4,8.3,22.2,11.9,31.1,4c8.9-7.9,7.6-21.8-0.1-30.7L459,737.8c-2.6-3,1.2-7.3,4.5-5l92.2,70.3c11.3,7.9,25.4,9.2,33,0  c8.5-10.2,1.5-24.6-8-32.3l-132.9-112c-21.2-16.6-13.5-34.9,12.8-34.2c33.5,1,71.1,1.5,77.5,1.7c15.1,0.6,23.9-8.3,25.8-19.7  c1.9-11.4-5.4-21.5-18.8-24.2l-162-20.5c-19.9-1.9-43-4.3-66.5-5.7l9.2-261.8c0.4-25.3,16.5-48.1,43.9-47.3  c24.6,0.7,42.7,21.2,44.1,49.6l3.9,220.8c0.3,8.3,12.2,9.2,13.8,1l49.9-308.5c4.7-23.8,27.7-39.5,51.8-35  c24.2,4.5,39.9,28.7,35.7,51.3l-39.3,280.4c-1.2,9.1,12,11.7,14.4,2.9l66.8-229.2c6.3-23.5,27.9-38.2,52-33.7  c24.2,4.5,38.9,31,34.7,53.5l-67.2,263.1c-1.7,9.6,11.6,14,15.9,5.2l66.2-130c11.2-23.3,29.3-29,47.8-22  C779.1,423.8,787.9,444.9,779.3,464.9z"></path></g><g id="SvgjsG2724" featureKey="nameFeature-0" transform="matrix(0.6875687453339203,0,0,0.6875687453339203,-0.9075905340114458,129.28932888816894)" fill="#ffffff"><path d="M15.2 40.24 c-8.12 0 -13.88 -1.76 -13.88 -11 l0 -8.48 c0 -9.24 5.76 -11 13.88 -11 s13.88 1.76 13.88 11 l0 8.48 c0 9.24 -5.76 11 -13.88 11 z M15.2 33.28 c4.16 0 5.64 -0.44 5.64 -4.92 l0 -6.76 c0 -4.44 -1.48 -4.88 -5.64 -4.88 s-5.52 0.44 -5.64 4.88 l0 6.76 c0.12 4.48 1.48 4.92 5.64 4.92 z M32.800000000000004 40 l0 -30 l15.76 0 c5.96 0 9.48 1.12 9.48 7.68 c0 3.8 -0.76 6.28 -4.72 6.92 l0 0.32 c4.44 0.28 5.2 2.96 5.2 6.72 c0 7.36 -3.44 8.36 -9.8 8.36 l-15.92 0 z M40.800000000000004 16.56 l0 5.44 l5.76 0 c2.8 0 3.48 -0.48 3.48 -2.88 c0 -1.8 -0.28 -2.48 -2.52 -2.56 l-6.72 0 z M40.800000000000004 27.560000000000002 l0 5.88 l6.04 0 c2.6 0 3.68 -0.6 3.68 -3.04 c0 -2.48 -0.92 -2.84 -3.52 -2.84 l-6.2 0 z M70.48 16.56 l0 5.48 l12.8 0 l0 5.56 l-12.8 0 l0 5.84 l13.92 0 l0 6.56 l-21.92 0 l0 -30 l21.64 0 l0 6.56 l-13.64 0 z M97.32000000000001 25.08 l6.2 0 c3.44 0 3.32 -1.28 3.32 -4.68 c0 -2.68 -0.68 -3.44 -3.32 -3.44 l-6.2 0 l0 8.12 z M89.32000000000001 40 l0 -30 l15.44 0 c6.92 0.12 10.32 1.6 10.32 9.08 c0 5 0 7.92 -5.68 9.24 l0 0.32 c3.28 0.12 5.4 1.92 5.4 5.32 l0 6.04 l-8 0 l0 -4.2 c0.08 -2.24 -0.88 -3.76 -3.28 -3.76 l-6.2 0 l0 7.96 l-8 0 z M145.72 10 l0 30 l-8 0 l0 -11.76 l-10.44 0 l0 11.76 l-8 0 l0 -30 l8 0 l0 11.28 l10.44 0 l0 -11.28 l8 0 z M168.32 34.84 l-10.76 0 l-1.48 5.16 l-8.32 0 l9 -30 l12.16 0 l9.12 30 l-8.16 0 z M166.72 29 l-3.72 -13 l-0.08 0 l-3.64 13 l7.44 0 z M197.92000000000002 10 l8 0 l0 20 c0 8 -3.76 10.24 -12.56 10.24 c-12 0 -13.28 -3.04 -13.28 -10.24 l0 -20 l8 0 l0 19.84 c0 3.4 1.92 3.44 5.28 3.44 c3.4 0 4.56 -0.28 4.56 -3.8 l0 -19.48 z M221.20000000000002 21.52 l3.32 0.24 c8.88 0.64 11.08 1.76 11.08 8.64 c0 4.96 0.2 9.84 -13 9.84 c-7.64 0 -12.72 -0.16 -12.72 -10 l7.68 0 c0 3.12 1.12 3.44 5.04 3.44 c3.76 0 5 -0.24 5 -2.76 c0 -2.6 -0.44 -2.56 -4.2 -2.8 l-1.76 -0.12 c-7.4 -0.52 -11.72 -0.48 -11.72 -9.08 s4.84 -9.16 12.68 -9.16 c6.56 0 12.16 0.12 12.16 8.4 l0 1.24 l-7.68 0 c0 -3.08 -1.28 -3.08 -4.48 -3.08 c-4.32 0 -4.68 0.88 -4.68 2.56 c0 2.4 1.16 2.48 3.28 2.64 z M247.60000000000002 16.56 l0 5.48 l12.8 0 l0 5.56 l-12.8 0 l0 5.84 l13.92 0 l0 6.56 l-21.92 0 l0 -30 l21.64 0 l0 6.56 l-13.64 0 z M274.44 25.08 l6.2 0 c3.44 0 3.32 -1.28 3.32 -4.68 c0 -2.68 -0.68 -3.44 -3.32 -3.44 l-6.2 0 l0 8.12 z M266.44 40 l0 -30 l15.44 0 c6.92 0.12 10.32 1.6 10.32 9.08 c0 5 0 7.92 -5.68 9.24 l0 0.32 c3.28 0.12 5.4 1.92 5.4 5.32 l0 6.04 l-8 0 l0 -4.2 c0.08 -2.24 -0.88 -3.76 -3.28 -3.76 l-6.2 0 l0 7.96 l-8 0 z"></path></g><g id="SvgjsG2725" featureKey="nameFeature-1" transform="matrix(0.7183908203473764,0,0,0.7183908203473764,-1.5804589826311788,159.98850405876124)" fill="#ffffff"><path d="M10.2 16.56 l0 5.88 l12.24 0 l0 6.56 l-12.24 0 l0 11 l-8 0 l0 -30 l21.28 0 l0 6.56 l-13.28 0 z M39.84 40.24 c-8.12 0 -13.88 -1.76 -13.88 -11 l0 -8.48 c0 -9.24 5.76 -11 13.88 -11 s13.88 1.76 13.88 11 l0 8.48 c0 9.24 -5.76 11 -13.88 11 z M39.84 33.28 c4.16 0 5.64 -0.44 5.64 -4.92 l0 -6.76 c0 -4.44 -1.48 -4.88 -5.64 -4.88 s-5.52 0.44 -5.64 4.88 l0 6.76 c0.12 4.48 1.48 4.92 5.64 4.92 z M75.4 10 l8 0 l0 20 c0 8 -3.76 10.24 -12.56 10.24 c-12 0 -13.28 -3.04 -13.28 -10.24 l0 -20 l8 0 l0 19.84 c0 3.4 1.92 3.44 5.28 3.44 c3.4 0 4.56 -0.28 4.56 -3.8 l0 -19.48 z M95.84 16.96 l0.48 23.04 l-8 0 l0 -30 l13.52 0 l8.6 23.04 l0.32 0 l-0.48 -23.04 l8 0 l0 30 l-13.64 0 l-8.48 -23.04 l-0.32 0 z M122.80000000000001 40 l0 -30 l15.2 0 c8.36 0 12.08 3.12 12.08 11.64 l0 6.28 c0 8.2 -2.64 12.08 -11 12.08 l-16.28 0 z M130.8 16.96 l0 16.08 l7 0 c2.96 0 4.04 -1.96 4.04 -5.12 l0 -6.28 c0 -3.88 -1.24 -4.68 -4.04 -4.68 l-7 0 z M171.8 34.84 l-10.76 0 l-1.48 5.16 l-8.32 0 l9 -30 l12.16 0 l9.12 30 l-8.16 0 z M170.20000000000002 29 l-3.72 -13 l-0.08 0 l-3.64 13 l7.44 0 z M196.76000000000002 16.96 l0 23.04 l-8 0 l0 -23.04 l-7.68 0 l0 -6.96 l23.76 0 l0 6.96 l-8.08 0 z M215.32000000000002 10 l0 30 l-8 0 l0 -30 l8 0 z M233.00000000000003 40.24 c-8.12 0 -13.88 -1.76 -13.88 -11 l0 -8.48 c0 -9.24 5.76 -11 13.88 -11 s13.88 1.76 13.88 11 l0 8.48 c0 9.24 -5.76 11 -13.88 11 z M233.00000000000003 33.28 c4.16 0 5.64 -0.44 5.64 -4.92 l0 -6.76 c0 -4.44 -1.48 -4.88 -5.64 -4.88 s-5.52 0.44 -5.64 4.88 l0 6.76 c0.12 4.48 1.48 4.92 5.64 4.92 z M258.16 16.96 l0.48 23.04 l-8 0 l0 -30 l13.52 0 l8.6 23.04 l0.32 0 l-0.48 -23.04 l8 0 l0 30 l-13.64 0 l-8.48 -23.04 l-0.32 0 z"></path></g>
			</g>
		</svg>
	